<?xml version="1.0" standalone="no"?>
<!DOCTYPE svg PUBLIC "-//W3C//DTD SVG 20010904//EN"
 "http://www.w3.org/TR/2001/REC-SVG-20010904/DTD/svg10.dtd">
<svg version="1.0" xmlns="http://www.w3.org/2000/svg"
 width="260.000000pt" height="260.000000pt" viewBox="0 0 260.000000 260.000000"
 preserveAspectRatio="xMidYMid meet">
<metadata>
Created by potrace 1.11, written by Peter Selinger 2001-2013
</metadata>
<g transform="translate(0.000000,260.000000) scale(0.100000,-0.100000)"
fill="#000000" stroke="none">
<path d="M519 2025 c-1 0 -2 -47 -3 -105 l-2 -105 -105 -3 -106 -3 1 -102 1
-102 65 -2 c36 -1 83 -2 105 -2 l40 -1 -1 -432 c0 -256 4 -446 10 -466 13 -45
71 -109 115 -129 55 -24 713 -26 783 -2 60 20 91 48 119 108 21 45 22 57 21
386 0 204 3 357 10 381 19 77 106 153 175 154 l22 0 3 -453 3 -453 27 -42 c15
-22 49 -53 75 -68 46 -28 49 -28 230 -29 158 -1 183 1 184 15 1 17 1 157 0
181 -1 11 -11 16 -35 16 -69 0 -66 -28 -66 577 0 351 -4 556 -11 574 -6 15
-20 38 -32 50 -43 46 -70 53 -210 54 -168 0 -223 -18 -303 -99 -30 -29 -54
-60 -54 -68 0 -8 -4 -16 -8 -19 -5 -3 -9 35 -9 85 0 49 -3 92 -6 95 -5 6 -172
7 -365 5 l-53 -1 1 -62 c1 -35 1 -82 1 -105 l-1 -43 -100 0 c-73 0 -100 3
-101 13 -1 6 -2 51 -3 99 0 47 -4 89 -8 93 -5 6 -190 10 -409 10z m621 -519
c2 -595 0 -710 -15 -725 -10 -11 -36 -15 -86 -15 -111 -1 -104 -31 -104 435
l0 394 70 5 c39 3 85 3 103 1 l32 -3 0 -92z"/>
</g>
</svg>
